<svg xmlns="http://www.w3.org/2000/svg" xmlns:xlink="http://www.w3.org/1999/xlink" width="1080" zoomAndPan="magnify" viewBox="0 0 810 809.999993" height="1080" preserveAspectRatio="xMidYMid meet" version="1.0"><defs><clipPath id="6ab1745bda"><path d="M 170 168 L 647 168 L 647 773.6875 L 170 773.6875 Z M 170 168 " clip-rule="nonzero"/></clipPath><clipPath id="d54179cfe9"><path d="M 157 37 L 651 37 L 651 356.386719 L 157 356.386719 Z M 157 37 " clip-rule="nonzero"/></clipPath></defs><g clip-path="url(#6ab1745bda)"><path fill="#000000" d="M 328.476562 647.125 L 314.394531 647.125 L 314.394531 705.804688 L 328.476562 705.804688 C 337.699219 705.804688 342.226562 700.6875 342.226562 691.3125 L 342.226562 661.640625 C 342.226562 652.242188 337.699219 647.136719 328.476562 647.136719 Z M 333.003906 691.722656 C 333.003906 695.910156 331.253906 697.417969 328.3125 697.417969 L 323.628906 697.417969 L 323.628906 655.511719 L 328.3125 655.511719 C 331.253906 655.511719 333.003906 657.019531 333.003906 661.207031 Z M 361.734375 646.289062 C 352.675781 646.289062 347.746094 651.652344 347.746094 661.042969 L 347.746094 691.898438 C 347.746094 701.289062 352.6875 706.652344 361.734375 706.652344 C 370.78125 706.652344 375.734375 701.289062 375.734375 691.898438 L 375.734375 661.042969 C 375.734375 651.652344 370.78125 646.289062 361.734375 646.289062 Z M 366.511719 692.488281 C 366.511719 696.675781 364.675781 698.265625 361.734375 698.265625 C 358.792969 698.265625 356.957031 696.675781 356.957031 692.488281 L 356.957031 660.453125 C 356.957031 656.277344 358.804688 654.675781 361.734375 654.675781 C 364.664062 654.675781 366.511719 656.277344 366.511719 660.453125 Z M 402.601562 647.136719 L 410.828125 647.136719 L 410.828125 705.816406 L 401.34375 705.816406 L 390.285156 662.96875 L 390.109375 662.96875 L 390.109375 705.816406 L 381.898438 705.816406 L 381.898438 647.136719 L 393.460938 647.136719 L 402.4375 682.265625 L 402.601562 682.265625 Z M 424.804688 647.136719 L 415.25 705.816406 L 423.804688 705.816406 L 425.484375 694.324219 L 435.96875 694.324219 L 435.96875 694.15625 L 437.648438 705.804688 L 446.859375 705.804688 L 437.308594 647.125 L 424.816406 647.125 Z M 426.566406 686.371094 L 430.589844 657.359375 L 430.753906 657.359375 L 434.875 686.371094 Z M 444.992188 647.136719 L 473.484375 647.136719 L 473.484375 655.523438 L 463.847656 655.523438 L 463.847656 705.816406 L 454.636719 705.816406 L 454.636719 655.523438 L 445.003906 655.523438 L 445.003906 647.136719 Z M 477.90625 647.136719 L 503.058594 647.136719 L 503.058594 655.523438 L 487.128906 655.523438 L 487.128906 671.027344 L 499.789062 671.027344 L 499.789062 679.40625 L 487.128906 679.40625 L 487.128906 697.429688 L 503.058594 697.429688 L 503.058594 705.816406 L 477.90625 705.816406 Z M 641.386719 639.816406 L 641.386719 619.265625 C 641.84375 598.820312 619.304688 584.078125 600.796875 592.523438 L 600.796875 524.066406 C 600.796875 519.199219 596.84375 515.246094 591.976562 515.246094 L 566.246094 515.246094 C 559.46875 496.976562 548.964844 480.503906 535.457031 466.941406 C 540.457031 462.726562 545.269531 458.246094 549.636719 453.246094 C 558.421875 443.164062 565.398438 431.871094 570.597656 419.859375 L 596.515625 428.199219 C 607.269531 431.894531 612.914062 414.753906 601.914062 411.398438 L 576.457031 403.210938 C 577.609375 399.046875 578.585938 394.847656 579.316406 390.589844 L 604.796875 390.589844 C 616.246094 390.753906 616.246094 372.777344 604.796875 372.941406 L 581.011719 372.941406 C 581.152344 368.683594 581.082031 364.425781 580.785156 360.132812 L 605.890625 356.976562 C 617.234375 355.707031 615.105469 337.90625 603.679688 339.472656 L 578.644531 342.613281 L 554.09375 190.171875 C 551.492188 168.804688 521.800781 160.867188 508.859375 178.03125 L 450.835938 249.214844 C 419.484375 242.652344 390.121094 242.59375 363.355469 249.039062 L 305.476562 178.03125 C 292.523438 160.867188 262.855469 168.804688 260.230469 190.171875 L 235.546875 343.4375 L 203.914062 339.460938 C 192.503906 337.835938 190.363281 355.71875 201.703125 356.964844 L 233.464844 360.953125 C 233.21875 364.953125 233.183594 368.941406 233.3125 372.917969 L 202.796875 372.917969 C 191.351562 372.753906 191.351562 390.730469 202.796875 390.566406 L 235.007812 390.566406 C 235.621094 394.140625 236.464844 397.671875 237.382812 401.175781 L 205.679688 411.375 C 194.679688 414.730469 200.324219 431.859375 211.078125 428.175781 L 242.867188 417.953125 C 248.136719 430.683594 255.453125 442.625 264.699219 453.234375 C 270.230469 459.574219 276.382812 465.222656 282.925781 470.292969 C 270.925781 483.1875 261.453125 498.410156 255.207031 515.234375 L 225.511719 515.234375 C 220.644531 515.234375 216.691406 519.1875 216.691406 524.054688 L 216.691406 592.5 C 198.183594 584.078125 175.667969 598.808594 176.125 619.253906 L 176.125 639.78125 C 172.679688 645.265625 170.597656 651.6875 170.597656 658.628906 L 170.597656 704.003906 C 170.597656 723.59375 186.527344 739.535156 206.125 739.535156 L 216.691406 739.535156 L 216.691406 765.109375 C 216.691406 769.980469 220.644531 773.933594 225.511719 773.933594 L 591.929688 773.933594 C 596.796875 773.933594 600.75 769.980469 600.75 765.109375 L 600.75 739.535156 L 611.328125 739.535156 C 630.914062 739.535156 646.855469 723.605469 646.855469 704.003906 L 646.855469 658.628906 C 646.855469 651.699219 644.785156 645.277344 641.339844 639.804688 Z M 600.796875 619.265625 C 600.796875 612.949219 605.949219 607.796875 612.269531 607.796875 C 621.867188 607.679688 624.820312 617.464844 623.75 625.441406 C 617.375 622.582031 607.773438 623.078125 600.808594 623.101562 L 600.808594 619.265625 Z M 278.054688 441.660156 C 256.984375 417.484375 247.417969 385.402344 251.785156 353.824219 L 277.675781 192.980469 C 280.207031 184.851562 286.757812 184.277344 291.828125 189.171875 L 353.285156 264.570312 C 355.5 267.296875 359.109375 268.414062 362.5 267.5 C 389.757812 259.898438 419.121094 259.910156 452.273438 267.59375 C 455.472656 268.367188 458.976562 267.179688 461.097656 264.570312 L 522.554688 189.171875 C 529 183.839844 533.753906 185.160156 536.695312 192.96875 L 562.574219 353.71875 C 566.941406 385.449219 557.375 417.496094 536.328125 441.648438 C 515.257812 465.835938 484.777344 479.691406 452.71875 479.691406 L 361.675781 479.691406 C 329.605469 479.691406 299.148438 465.824219 278.078125 441.660156 Z M 297.746094 480.246094 C 317.003906 491.28125 338.96875 497.339844 361.652344 497.339844 L 452.695312 497.339844 C 477.144531 497.339844 500.707031 490.269531 520.976562 477.539062 C 532.070312 488.1875 541.082031 500.949219 547.316406 515.234375 L 274.171875 515.234375 C 279.890625 502.152344 287.910156 490.316406 297.757812 480.234375 Z M 193.820312 619.265625 C 193.820312 612.949219 198.972656 607.796875 205.289062 607.796875 C 213.539062 607.714844 217.832031 615.628906 216.773438 623.101562 C 209.785156 623.101562 200.21875 622.582031 193.832031 625.441406 L 193.832031 619.265625 Z M 206.171875 721.898438 C 196.3125 721.898438 188.292969 713.875 188.292969 704.015625 L 188.292969 658.640625 C 188.292969 648.769531 196.3125 640.746094 206.171875 640.746094 L 256.984375 640.746094 C 271.359375 640.839844 269.441406 663.183594 255.265625 661.160156 C 250.394531 661.160156 246.441406 665.113281 246.441406 669.980469 L 246.441406 704.015625 C 246.441406 713.875 238.417969 721.898438 228.5625 721.898438 L 206.160156 721.898438 Z M 583.152344 756.296875 L 234.394531 756.296875 L 234.394531 738.957031 C 251.207031 736.15625 264.101562 721.617188 264.101562 704.015625 L 264.101562 677.886719 C 276.03125 674.734375 284.839844 663.863281 284.839844 650.957031 C 284.839844 635.59375 272.347656 623.101562 256.996094 623.101562 L 234.417969 623.101562 L 234.394531 532.890625 L 583.164062 532.890625 L 583.164062 623.101562 L 560.585938 623.101562 C 545.222656 623.101562 532.730469 635.59375 532.730469 650.957031 C 532.730469 663.851562 541.539062 674.734375 553.46875 677.886719 L 553.46875 704.015625 C 553.46875 721.605469 566.351562 736.144531 583.164062 738.945312 L 583.164062 756.285156 Z M 629.257812 704.027344 C 629.257812 713.886719 621.234375 721.910156 611.375 721.910156 L 588.976562 721.910156 C 579.117188 721.910156 571.09375 713.886719 571.09375 704.027344 L 571.09375 669.992188 C 571.09375 665.125 567.140625 661.171875 562.269531 661.171875 C 548.082031 663.171875 546.199219 640.839844 560.5625 640.757812 L 611.363281 640.757812 C 621.222656 640.757812 629.246094 648.78125 629.246094 658.652344 L 629.246094 704.027344 Z M 565.929688 604.890625 L 250.914062 604.890625 L 250.914062 547.316406 L 565.929688 547.316406 Z M 315.441406 355.035156 C 315.441406 343.390625 325.992188 333.945312 325.992188 333.945312 C 325.992188 333.945312 336.546875 343.390625 336.546875 355.035156 C 336.546875 366.683594 325.992188 376.128906 325.992188 376.128906 C 325.992188 376.128906 315.441406 366.683594 315.441406 355.035156 Z M 465.285156 355.035156 C 465.285156 343.390625 475.835938 333.945312 475.835938 333.945312 C 475.835938 333.945312 486.390625 343.390625 486.390625 355.035156 C 486.390625 366.683594 475.835938 376.128906 475.835938 376.128906 C 475.835938 376.128906 465.285156 366.683594 465.285156 355.035156 Z M 341.628906 423.410156 C 332.828125 416.070312 344.546875 402.449219 353.121094 410.011719 C 365.320312 420.496094 375.734375 424.894531 382.570312 422.480469 C 389.570312 419.964844 393.53125 410.4375 395.238281 404.304688 C 389.355469 402.496094 384.179688 396.90625 380.039062 392.367188 C 372.992188 384.976562 378.238281 372.742188 388.4375 372.742188 L 421.085938 372.742188 C 431.296875 372.742188 436.53125 384.976562 429.484375 392.367188 C 425.296875 396.976562 420.027344 402.613281 414.039062 404.378906 C 415.308594 410.707031 418.863281 421.292969 426.332031 424.503906 C 433.863281 427.753906 445.449219 423.671875 459.953125 412.730469 C 468.976562 405.660156 479.835938 420.070312 470.589844 426.8125 C 456.109375 437.742188 443.121094 443.234375 431.8125 443.234375 C 420.226562 443.648438 409.261719 436.070312 404.039062 426.695312 C 398.816406 434.625 388.804688 441.117188 378.511719 440.8125 C 367.476562 440.8125 355.109375 434.988281 341.617188 423.410156 Z M 341.628906 423.410156 " fill-opacity="1" fill-rule="nonzero"/></g><g clip-path="url(#d54179cfe9)"><path fill="#000000" d="M 641.214844 100.621094 C 568.792969 80.355469 496.078125 61.105469 423.566406 41 C 411.839844 37.445312 399.253906 36.378906 387.441406 40.144531 C 315.878906 59.566406 244.355469 79.199219 172.789062 98.613281 C 166.496094 100.664062 156.355469 102.417969 157.382812 111.316406 C 158.453125 119.226562 167.480469 120.089844 173.476562 122.3125 C 195.867188 128.429688 218.332031 134.335938 240.722656 140.578125 C 240.9375 179.417969 240.546875 218.253906 240.851562 257.089844 C 239.824219 264.878906 245.347656 273.132812 253.734375 272.917969 C 304.070312 276.039062 352.136719 297.722656 390.148438 330.402344 C 396.007812 336.136719 405.597656 340.664062 412.578125 333.996094 C 447.59375 304.3125 489.539062 281.050781 535.636719 275.054688 C 543.898438 273.726562 552.546875 274.117188 560.503906 271.207031 C 568.296875 266.421875 566.667969 256.105469 566.96875 248.371094 C 566.285156 212.441406 567.183594 176.515625 566.667969 140.628906 C 573.175781 138.835938 579.722656 137.035156 586.226562 135.238281 C 586.183594 177.328125 586.441406 219.417969 586.050781 261.496094 C 574.582031 269.925781 573.855469 286.476562 585.707031 294.988281 C 576.03125 313.9375 574.960938 335.617188 579.113281 356.195312 C 597.816406 347.984375 618.53125 350.503906 637.582031 356.109375 C 625.167969 336.050781 618.1875 313.210938 605.648438 293.191406 C 614.632812 283.480469 612.578125 269.414062 602.394531 261.539062 C 602.046875 218.003906 602.132812 174.457031 602.261719 130.960938 C 616.902344 126.511719 632.179688 123.90625 646.265625 117.835938 C 653.625 112.773438 649.429688 101.5625 641.214844 100.621094 Z M 583.558594 116.113281 C 536.140625 112.429688 488.714844 108.710938 441.289062 105.289062 C 429.644531 105.761719 422.800781 93.480469 411.40625 92.671875 C 398.097656 90.316406 379.949219 93.652344 374.683594 107.851562 C 373.3125 122.648438 391.71875 128.9375 403.746094 128.636719 C 415.300781 130.214844 424.121094 119.953125 435.460938 120.769531 C 472.828125 123.503906 510.152344 126.460938 547.519531 129.28125 C 503.128906 141.261719 458.835938 153.664062 414.402344 165.550781 C 403.960938 169.015625 393.171875 165.722656 383.03125 162.902344 C 318.867188 145.238281 254.625 127.789062 190.378906 110.378906 C 257.449219 91.945312 324.605469 73.851562 391.71875 55.457031 C 399.722656 52.929688 408.199219 53.058594 416.207031 55.585938 C 483.148438 73.851562 550.132812 92.066406 617.074219 110.289062 C 606.164062 113.371094 595.074219 117.519531 583.558594 116.113281 Z M 583.558594 116.113281 " fill-opacity="1" fill-rule="nonzero"/></g></svg>