<svg xmlns="http://www.w3.org/2000/svg" xmlns:xlink="http://www.w3.org/1999/xlink" width="1080" zoomAndPan="magnify" viewBox="0 0 810 809.999993" height="1080" preserveAspectRatio="xMidYMid meet" version="1.0"><defs><clipPath id="725f94e419"><path d="M 14.691406 14.691406 L 795.441406 14.691406 L 795.441406 795.441406 L 14.691406 795.441406 Z M 14.691406 14.691406 " clip-rule="nonzero"/></clipPath></defs><g clip-path="url(#725f94e419)"><path fill="#000000" d="M 405.121094 795.386719 C 189.871094 795.386719 14.746094 620.265625 14.746094 405.015625 C 14.746094 189.761719 189.871094 14.640625 405.121094 14.640625 C 441.9375 14.640625 478.40625 19.777344 513.507812 29.898438 C 520.101562 31.796875 523.890625 38.683594 522 45.277344 C 520.101562 51.855469 513.203125 55.625 506.621094 53.769531 C 473.769531 44.289062 439.613281 39.476562 405.132812 39.476562 C 203.574219 39.476562 39.597656 203.457031 39.597656 405.015625 C 39.597656 606.570312 203.566406 770.550781 405.121094 770.550781 C 606.679688 770.550781 770.660156 606.570312 770.660156 405.015625 C 770.660156 378.535156 767.792969 352.082031 762.132812 326.40625 C 760.65625 319.707031 764.894531 313.082031 771.582031 311.605469 C 778.292969 310.117188 784.910156 314.351562 786.386719 321.050781 C 792.433594 348.484375 795.496094 376.734375 795.496094 405.003906 C 795.496094 620.265625 620.375 795.386719 405.121094 795.386719 Z M 405.121094 795.386719 " fill-opacity="1" fill-rule="nonzero"/><path fill="#000000" d="M 405.121094 795.386719 C 189.871094 795.386719 14.746094 620.265625 14.746094 405.015625 C 14.746094 189.761719 189.871094 14.640625 405.121094 14.640625 C 441.9375 14.640625 478.40625 19.777344 513.507812 29.898438 C 520.101562 31.796875 523.890625 38.683594 522 45.277344 C 520.101562 51.855469 513.203125 55.625 506.621094 53.769531 C 473.769531 44.289062 439.613281 39.476562 405.132812 39.476562 C 203.574219 39.476562 39.597656 203.457031 39.597656 405.015625 C 39.597656 606.570312 203.566406 770.550781 405.121094 770.550781 C 606.679688 770.550781 770.660156 606.570312 770.660156 405.015625 C 770.660156 378.535156 767.792969 352.082031 762.132812 326.40625 C 760.65625 319.707031 764.894531 313.082031 771.582031 311.605469 C 778.292969 310.117188 784.910156 314.351562 786.386719 321.050781 C 792.433594 348.484375 795.496094 376.734375 795.496094 405.003906 C 795.496094 620.265625 620.375 795.386719 405.121094 795.386719 Z M 405.121094 795.386719 " fill-opacity="1" fill-rule="nonzero"/></g><path fill="#000000" d="M 700.023438 297.226562 L 611.675781 297.226562 C 603.453125 297.226562 596.773438 290.546875 596.773438 282.324219 L 596.773438 221.332031 L 535.78125 221.332031 C 527.574219 221.332031 520.894531 214.652344 520.894531 206.433594 L 520.894531 118.082031 C 520.894531 109.863281 527.574219 103.183594 535.78125 103.183594 L 596.773438 103.183594 L 596.773438 42.191406 C 596.773438 33.980469 603.453125 27.300781 611.675781 27.300781 L 700.023438 27.300781 C 708.234375 27.300781 714.914062 33.980469 714.914062 42.191406 L 714.914062 103.183594 L 775.90625 103.183594 C 784.125 103.183594 790.804688 109.863281 790.804688 118.082031 L 790.804688 206.421875 C 790.804688 214.644531 784.125 221.320312 775.90625 221.320312 L 714.914062 221.320312 L 714.914062 282.3125 C 714.914062 290.535156 708.234375 297.226562 700.023438 297.226562 Z M 621.613281 272.386719 L 690.074219 272.386719 L 690.074219 211.394531 C 690.074219 203.175781 696.753906 196.496094 704.976562 196.496094 L 765.96875 196.496094 L 765.96875 128.03125 L 704.976562 128.03125 C 696.753906 128.03125 690.074219 121.351562 690.074219 113.132812 L 690.074219 52.140625 L 621.613281 52.140625 L 621.613281 113.132812 C 621.613281 121.351562 614.933594 128.03125 606.710938 128.03125 L 545.71875 128.03125 L 545.71875 196.496094 L 606.710938 196.496094 C 614.933594 196.496094 621.613281 203.175781 621.613281 211.394531 Z M 621.613281 272.386719 " fill-opacity="1" fill-rule="nonzero"/><path fill="#000000" d="M 79.550781 616.953125 C 78.867188 616.953125 78.183594 616.898438 77.488281 616.78125 C 70.722656 615.648438 66.148438 609.253906 67.289062 602.476562 C 72.058594 573.980469 99.96875 527.476562 117.335938 505.015625 C 160.777344 448.8125 188.816406 378.96875 196.300781 308.335938 C 197.027344 301.515625 203.195312 296.628906 209.960938 297.289062 C 216.78125 298.007812 221.722656 304.132812 221.007812 310.953125 C 212.9375 387.179688 183.886719 459.542969 136.992188 520.210938 C 120.601562 541.398438 95.484375 584.511719 91.789062 606.570312 C 90.769531 612.652344 85.511719 616.953125 79.550781 616.953125 Z M 79.550781 616.953125 " fill-opacity="1" fill-rule="nonzero"/><path fill="#000000" d="M 233.691406 281.847656 C 233.636719 281.847656 233.582031 281.847656 233.527344 281.847656 C 226.675781 281.757812 221.179688 276.125 221.265625 269.269531 C 221.917969 218.410156 238.449219 167.519531 267.816406 125.980469 C 278.242188 111.242188 289.773438 104.832031 302.078125 106.777344 C 317.902344 109.351562 325.179688 125.273438 327.570312 130.507812 C 339.632812 156.84375 346.8125 186.058594 348.300781 215 C 348.660156 221.855469 343.390625 227.695312 336.539062 228.042969 C 329.742188 228.382812 323.84375 223.136719 323.496094 216.28125 C 322.160156 190.445312 315.761719 164.359375 304.980469 140.847656 C 300.9375 131.996094 298.363281 131.34375 298.082031 131.300781 C 297.136719 131.136719 293.621094 132.515625 288.082031 140.324219 C 261.59375 177.792969 246.667969 223.710938 246.09375 269.597656 C 246.019531 276.394531 240.46875 281.847656 233.691406 281.847656 Z M 233.691406 281.847656 " fill-opacity="1" fill-rule="nonzero"/><path fill="#000000" d="M 433.382812 217.128906 C 426.660156 217.128906 421.128906 211.753906 420.976562 205 C 420.425781 181.246094 419.347656 161.871094 418.230469 155.628906 C 416.503906 145.941406 410.542969 132.625 406.847656 129.910156 C 401.050781 131.429688 386.128906 145.417969 379.449219 158.832031 C 376.375 164.96875 368.9375 167.464844 362.800781 164.425781 C 356.652344 161.371094 354.15625 153.910156 357.207031 147.777344 C 363.539062 135.058594 389.449219 99.980469 412.476562 105.5625 C 435.226562 111.078125 442.601562 150.839844 442.667969 151.238281 C 444.632812 162.21875 445.511719 192.085938 445.792969 204.433594 C 445.957031 211.285156 440.527344 216.976562 433.664062 217.128906 C 433.578125 217.128906 433.480469 217.128906 433.382812 217.128906 Z M 407.480469 129.789062 Z M 407.480469 129.789062 " fill-opacity="1" fill-rule="nonzero"/><path fill="#000000" d="M 462.246094 775.613281 C 455.515625 775.613281 449.988281 770.226562 449.835938 763.460938 L 448.933594 721.386719 C 448.792969 714.535156 454.222656 708.851562 461.085938 708.703125 C 467.992188 708.558594 473.617188 713.992188 473.769531 720.855469 L 474.671875 762.9375 C 474.8125 769.789062 469.371094 775.472656 462.519531 775.613281 C 462.433594 775.613281 462.335938 775.613281 462.246094 775.613281 Z M 462.246094 775.613281 " fill-opacity="1" fill-rule="nonzero"/><path fill="#000000" d="M 460 668.136719 C 453.265625 668.136719 447.738281 662.761719 447.585938 655.996094 L 446.304688 595.035156 C 445.902344 576.988281 445.414062 554.527344 456.578125 535.132812 C 466.375 518.210938 482.109375 508.285156 497.335938 498.683594 C 501.59375 496 505.839844 493.320312 509.902344 490.496094 C 533.066406 474.378906 551.617188 451.125 562.109375 425.019531 C 564.660156 418.699219 572.199219 397.257812 562.226562 385.976562 C 556.949219 379.980469 547.859375 377.679688 537.324219 375.015625 C 529.484375 373.03125 521.359375 370.976562 513.605469 367.058594 C 490.691406 355.554688 480.070312 333.390625 469.796875 311.941406 C 466.136719 304.304688 462.683594 297.09375 458.738281 290.492188 C 443.894531 265.652344 419.328125 247.203125 391.371094 239.859375 C 363.386719 232.53125 332.933594 236.527344 307.800781 250.851562 C 301.839844 254.25 294.261719 252.164062 290.871094 246.214844 C 287.472656 240.25 289.546875 232.671875 295.507812 229.28125 C 326.222656 211.777344 363.460938 206.886719 397.671875 215.847656 C 431.871094 224.820312 461.898438 247.386719 480.058594 277.761719 C 484.585938 285.34375 488.453125 293.414062 492.191406 301.222656 C 501.050781 319.707031 509.425781 337.179688 524.769531 344.878906 C 530.113281 347.574219 536.585938 349.214844 543.441406 350.949219 C 556.125 354.164062 570.503906 357.804688 580.851562 369.554688 C 594.136719 384.585938 595.699219 408.183594 585.152344 434.304688 C 572.882812 464.832031 551.195312 492.027344 524.097656 510.878906 C 519.730469 513.921875 515.171875 516.800781 510.597656 519.6875 C 497.335938 528.050781 484.816406 535.945312 478.105469 547.535156 C 470.988281 559.914062 470.742188 575.457031 471.152344 594.484375 L 472.433594 655.441406 C 472.585938 662.296875 467.15625 667.984375 460.292969 668.128906 C 460.195312 668.136719 460.097656 668.136719 460 668.136719 Z M 460 668.136719 " fill-opacity="1" fill-rule="nonzero"/><path fill="#000000" d="M 371.03125 424.238281 C 364.320312 424.238281 358.792969 418.882812 358.628906 412.136719 C 358.457031 405.285156 363.863281 399.582031 370.726562 399.410156 L 428.765625 397.933594 C 428.875 397.921875 428.980469 397.921875 429.089844 397.921875 C 435.800781 397.921875 441.332031 403.277344 441.492188 410.019531 C 441.667969 416.875 436.257812 422.574219 429.394531 422.75 L 371.355469 424.226562 C 371.25 424.238281 371.140625 424.238281 371.03125 424.238281 Z M 371.03125 424.238281 " fill-opacity="1" fill-rule="nonzero"/><path fill="#000000" d="M 373.746094 510.359375 C 371.214844 510.359375 368.652344 509.585938 366.4375 507.980469 C 360.898438 503.941406 359.683594 496.164062 363.722656 490.625 C 381.164062 466.699219 406.316406 448.5625 434.542969 439.570312 C 441.046875 437.476562 448.0625 441.089844 450.148438 447.628906 C 452.234375 454.167969 448.628906 461.152344 442.089844 463.234375 C 418.851562 470.644531 398.148438 485.566406 383.792969 505.265625 C 381.359375 508.589844 377.582031 510.359375 373.746094 510.359375 Z M 373.746094 510.359375 " fill-opacity="1" fill-rule="nonzero"/><path fill="#000000" d="M 429.351562 365.90625 C 422.5 365.90625 416.9375 360.34375 416.9375 353.492188 L 416.9375 335.953125 C 416.9375 329.101562 422.5 323.539062 429.351562 323.539062 C 436.203125 323.539062 441.765625 329.101562 441.765625 335.953125 L 441.765625 353.492188 C 441.777344 360.34375 436.214844 365.90625 429.351562 365.90625 Z M 429.351562 365.90625 " fill-opacity="1" fill-rule="nonzero"/><path fill="#000000" d="M 565.09375 416.675781 C 563.585938 416.675781 562.042969 416.394531 560.554688 415.808594 C 552.53125 412.648438 545.894531 405.925781 541.863281 396.890625 C 538.800781 389.992188 537.660156 382.96875 536.652344 376.765625 C 535.554688 370 540.160156 363.625 546.925781 362.515625 C 553.703125 361.386719 560.078125 366.023438 561.175781 372.792969 C 562.011719 377.949219 562.804688 382.835938 564.550781 386.777344 C 565.855469 389.699219 567.808594 391.960938 569.65625 392.6875 C 576.042969 395.207031 579.179688 402.417969 576.660156 408.792969 C 574.726562 413.679688 570.046875 416.675781 565.09375 416.675781 Z M 565.09375 416.675781 " fill-opacity="1" fill-rule="nonzero"/><path fill="#000000" d="M 483.046875 656.027344 C 482.949219 656.027344 482.851562 656.027344 482.753906 656.019531 C 343.207031 652.835938 204.640625 605.246094 92.59375 522 C 87.089844 517.90625 85.9375 510.132812 90.03125 504.625 C 94.125 499.128906 101.902344 497.96875 107.40625 502.0625 C 215.359375 582.277344 348.867188 628.140625 483.316406 631.203125 C 490.167969 631.355469 495.601562 637.042969 495.449219 643.898438 C 495.296875 650.652344 489.769531 656.027344 483.046875 656.027344 Z M 483.046875 656.027344 " fill-opacity="1" fill-rule="nonzero"/><path fill="#000000" d="M 223.210938 515.8125 C 221.191406 515.8125 219.128906 515.3125 217.226562 514.269531 L 155.433594 480.222656 C 149.425781 476.910156 147.234375 469.359375 150.546875 463.355469 C 153.847656 457.359375 161.417969 455.144531 167.410156 458.46875 L 229.207031 492.515625 C 235.210938 495.828125 237.40625 503.386719 234.09375 509.382812 C 231.835938 513.496094 227.589844 515.8125 223.210938 515.8125 Z M 223.210938 515.8125 " fill-opacity="1" fill-rule="nonzero"/><path fill="#000000" d="M 234.277344 441.15625 C 232.464844 441.15625 230.628906 440.765625 228.890625 439.929688 L 188.546875 420.480469 C 182.367188 417.503906 179.769531 410.074219 182.746094 403.90625 C 185.722656 397.726562 193.148438 395.140625 199.320312 398.105469 L 239.664062 417.558594 C 245.84375 420.53125 248.441406 427.960938 245.464844 434.128906 C 243.335938 438.570312 238.894531 441.15625 234.277344 441.15625 Z M 234.277344 441.15625 " fill-opacity="1" fill-rule="nonzero"/><path fill="#000000" d="M 188.46875 651.664062 C 186.40625 651.664062 184.320312 651.152344 182.386719 650.066406 C 147.601562 630.472656 115.402344 606.484375 86.652344 578.777344 C 81.722656 574.023438 81.582031 566.160156 86.339844 561.21875 C 91.105469 556.289062 98.957031 556.15625 103.898438 560.902344 C 131.117188 587.152344 161.632812 609.871094 194.574219 628.433594 C 200.558594 631.800781 202.664062 639.367188 199.296875 645.34375 C 197.015625 649.394531 192.8125 651.664062 188.46875 651.664062 Z M 188.46875 651.664062 " fill-opacity="1" fill-rule="nonzero"/><path fill="#000000" d="M 444.566406 737.6875 C 417.589844 737.6875 395.640625 715.738281 395.640625 688.761719 C 395.640625 661.785156 417.589844 639.835938 444.566406 639.835938 C 471.542969 639.835938 493.492188 661.785156 493.492188 688.761719 C 493.492188 715.738281 471.542969 737.6875 444.566406 737.6875 Z M 444.566406 664.671875 C 431.285156 664.671875 420.480469 675.480469 420.480469 688.761719 C 420.480469 702.042969 431.285156 712.851562 444.566406 712.851562 C 457.847656 712.851562 468.65625 702.042969 468.65625 688.761719 C 468.667969 675.480469 457.859375 664.671875 444.566406 664.671875 Z M 444.566406 664.671875 " fill-opacity="1" fill-rule="nonzero"/></svg>