<svg xmlns="http://www.w3.org/2000/svg" xmlns:xlink="http://www.w3.org/1999/xlink" width="1080" zoomAndPan="magnify" viewBox="0 0 810 809.999993" height="1080" preserveAspectRatio="xMidYMid meet" version="1.0"><defs><clipPath id="7d426db785"><path d="M 6.53125 66 L 803.78125 66 L 803.78125 736 L 6.53125 736 Z M 6.53125 66 " clip-rule="nonzero"/></clipPath></defs><g clip-path="url(#7d426db785)"><path fill="#000000" d="M 127.878906 74.25 C 131.53125 66.828125 141.78125 64.472656 148.617188 68.832031 C 192.679688 94.503906 231.4375 129.007812 262.304688 169.632812 C 271.023438 181.171875 279.625 192.949219 287.046875 205.429688 C 298.472656 201.308594 310.257812 198.367188 322.039062 195.304688 C 328.871094 187.648438 335.703125 179.878906 343.597656 173.285156 C 362.566406 156.445312 385.539062 145.375 405.921875 130.535156 C 418.292969 121.824219 429.128906 111.105469 438.320312 99.214844 C 434.550781 126.769531 421.945312 152.675781 404.976562 174.460938 C 409.101562 171.515625 412.519531 167.632812 416.640625 164.6875 C 430.78125 154.675781 447.625 148.199219 464.945312 146.667969 C 484.738281 144.785156 505.238281 147.140625 523.851562 154.558594 C 524.914062 155.148438 526.089844 155.621094 527.152344 156.324219 C 510.65625 153.382812 493.925781 159.503906 480.496094 168.925781 C 471.425781 175.050781 463.886719 183.058594 456.816406 191.183594 C 479.90625 193.183594 502.410156 199.898438 524.207031 207.316406 C 534.808594 188.828125 547.886719 171.871094 561.199219 155.148438 C 589.121094 121.234375 623.167969 92.617188 660.632812 69.890625 C 665.699219 66.476562 672.652344 65.417969 678.1875 68.476562 C 683.960938 71.421875 686.199219 78.015625 688.675781 83.550781 C 699.042969 106.75 706.933594 131.125 711.53125 156.207031 C 721.542969 207.199219 721.660156 260.308594 710.117188 310.945312 C 707.40625 322.957031 703.519531 334.613281 699.75 346.269531 C 701.75 352.628906 704.34375 358.753906 706.347656 364.996094 C 712.472656 383.601562 715.890625 403.03125 717.421875 422.460938 C 742.398438 420.578125 767.84375 424.464844 791.171875 433.765625 C 793.765625 434.707031 796.589844 435.414062 798.710938 437.300781 C 781.277344 437.417969 763.605469 440.949219 747.933594 448.722656 C 731.558594 456.375 715.417969 464.617188 698.097656 469.683594 C 696.566406 470.390625 693.269531 469.683594 692.796875 471.683594 C 694.683594 472.15625 696.332031 470.976562 697.980469 470.507812 C 720.601562 469.09375 743.929688 473.097656 763.484375 484.636719 C 780.332031 494.175781 793.765625 508.894531 803.777344 525.265625 C 794.351562 520.320312 785.046875 514.785156 774.679688 512.074219 C 740.160156 503.125 703.753906 502.773438 668.527344 508.070312 C 686.90625 508.070312 705.285156 511.132812 722.488281 517.609375 C 743.457031 525.617188 761.011719 540.808594 774.796875 558.121094 C 780.097656 564.949219 785.515625 571.898438 788.933594 579.789062 C 781.746094 573.3125 774.914062 566.480469 766.550781 561.535156 C 747.109375 549.171875 723.78125 546.109375 701.28125 543.988281 C 698.804688 548.347656 697.273438 553.054688 695.035156 557.414062 C 664.167969 621.828125 609.855469 674.347656 545.175781 704.375 C 464.945312 741.824219 369.398438 745.472656 286.695312 713.914062 C 207.992188 684.121094 141.664062 621.945312 108.675781 544.222656 C 84.054688 545.285156 58.253906 549.875 38.105469 565.066406 C 31.746094 569.425781 26.441406 575.195312 20.550781 580.375 C 23.496094 573.191406 28.328125 567.070312 32.804688 560.710938 C 46.351562 542.105469 64.378906 526.089844 86.054688 517.609375 C 102.078125 510.898438 119.515625 509.367188 136.597656 508.070312 C 136.363281 507.953125 135.890625 507.601562 135.65625 507.484375 C 111.269531 504.066406 86.410156 503.714844 61.90625 506.777344 C 47.765625 508.894531 33.277344 511.25 20.316406 517.726562 C 15.605469 519.964844 11.246094 522.792969 6.53125 525.03125 C 15.015625 510.664062 26.207031 497.589844 40.226562 488.289062 C 61.316406 473.449219 88.058594 469.09375 113.390625 470.273438 L 113.035156 471.566406 C 114.332031 471.566406 115.628906 471.566406 116.921875 471.449219 C 115.390625 469.566406 112.800781 469.917969 110.679688 469.210938 C 91.359375 463.558594 73.6875 453.433594 55.1875 445.542969 C 41.167969 439.652344 25.972656 437.886719 10.890625 437.0625 C 36.457031 425.757812 64.96875 419.636719 93.007812 422.933594 C 94.894531 397.851562 100.902344 373.003906 110.207031 349.570312 C 112.566406 344.742188 108.792969 340.03125 107.734375 335.320312 C 94.65625 292.808594 89.589844 247.824219 93.125 203.546875 C 96.1875 159.035156 107.851562 114.523438 127.878906 74.25 M 144.84375 157.976562 C 140.015625 173.285156 136.953125 189.179688 135.421875 205.078125 C 132.828125 234.164062 134.359375 264.3125 144.375 291.984375 C 144.964844 291.394531 146.257812 290.335938 146.847656 289.746094 C 168.996094 263.488281 195.386719 240.757812 225.195312 223.800781 C 205.992188 192.714844 180.308594 165.628906 149.675781 145.492188 C 147.320312 149.261719 146.257812 153.734375 144.84375 157.976562 M 585.117188 223.917969 C 615.863281 242.054688 643.785156 265.371094 666.289062 293.160156 C 671.472656 278.796875 674.652344 263.839844 675.949219 248.648438 C 677.953125 221.800781 676.1875 194.480469 669.46875 168.335938 C 667.46875 160.566406 665.464844 152.558594 661.8125 145.257812 C 630.472656 164.921875 604.320312 192.359375 585.117188 223.917969 M 236.976562 390.902344 C 219.773438 394.199219 204.105469 403.738281 192.796875 417.042969 C 182.546875 429.644531 175.832031 445.304688 175.242188 461.558594 C 174.179688 481.695312 180.894531 502.539062 194.796875 517.140625 C 207.757812 531.625 226.253906 541.042969 245.695312 542.457031 C 259.949219 543.398438 274.441406 540.21875 287.046875 533.507812 C 305.308594 523.617188 319.328125 506.1875 324.984375 486.285156 C 330.167969 468.503906 328.28125 448.722656 319.917969 432.117188 C 313.789062 420.34375 305.070312 409.742188 293.878906 402.679688 C 277.503906 391.492188 256.53125 386.898438 236.976562 390.902344 M 548.359375 389.605469 C 532.21875 390.902344 516.429688 397.261719 504.175781 407.976562 C 486.742188 421.871094 476.375 444.128906 476.726562 466.386719 C 476.492188 479.457031 480.261719 492.292969 486.625 503.597656 C 496.402344 520.671875 513.132812 533.625 531.980469 539.394531 C 550.476562 545.285156 571.214844 543.164062 588.296875 534.214844 C 602.550781 526.558594 614.570312 514.546875 621.753906 500.0625 C 631.179688 481.929688 632.242188 460.027344 625.527344 440.949219 C 620.105469 426.113281 610.445312 412.570312 597.367188 403.503906 C 583.347656 393.257812 565.675781 388.429688 548.359375 389.605469 M 394.726562 504.773438 C 389.898438 505.953125 384.714844 507.601562 381.652344 511.839844 C 379.292969 515.019531 380.121094 519.613281 382.828125 522.320312 C 387.777344 527.621094 394.023438 531.859375 401.089844 533.742188 C 407.097656 535.039062 412.753906 531.859375 417.703125 528.914062 C 421.707031 526.207031 425.949219 523.144531 427.480469 518.316406 C 428.660156 513.84375 425.359375 509.484375 421.355469 507.71875 C 413.226562 503.597656 403.566406 502.773438 394.726562 504.773438 M 398.617188 539.984375 C 397.203125 549.171875 399.792969 559.0625 395.554688 567.777344 C 392.136719 576.371094 383.300781 584.027344 373.640625 582.140625 C 369.632812 581.671875 366.925781 578.726562 364.097656 576.253906 C 361.976562 574.253906 358.089844 574.371094 356.558594 577.078125 C 354.90625 578.84375 355.851562 581.554688 357.382812 583.085938 C 363.15625 588.972656 371.519531 592.976562 379.882812 591.679688 C 390.132812 590.03125 398.5 582.496094 403.09375 573.546875 C 407.214844 583.203125 416.40625 591.09375 427.128906 591.796875 C 435.136719 592.621094 442.914062 588.738281 448.214844 582.964844 C 449.867188 581.199219 450.570312 578.136719 448.6875 576.371094 C 447.039062 574.136719 443.503906 574.371094 441.617188 576.253906 C 438.085938 579.082031 434.3125 582.613281 429.367188 582.378906 C 420.175781 582.847656 412.871094 575.195312 409.691406 567.1875 C 406.273438 558.472656 408.628906 549.050781 407.335938 539.984375 C 406.390625 535.746094 399.558594 535.511719 398.617188 539.984375 Z M 398.617188 539.984375 " fill-opacity="1" fill-rule="nonzero"/></g><path fill="#000000" d="M 242.75 420.222656 C 254.882812 416.691406 268.3125 417.632812 279.625 423.050781 C 289.875 427.761719 298.121094 436.355469 303.304688 446.25 C 311.316406 461.792969 309.785156 481.578125 299.652344 495.707031 C 293.054688 505.597656 282.570312 512.429688 271.378906 515.960938 C 256.414062 520.4375 239.566406 517.257812 226.960938 508.191406 C 216.359375 500.417969 208.347656 488.878906 206.226562 475.804688 C 204.8125 465.089844 206.578125 453.902344 211.882812 444.480469 C 218.714844 432.941406 229.90625 423.992188 242.75 420.222656 M 233.324219 446.011719 C 227.316406 447.78125 222.25 452.84375 220.953125 459.203125 C 218.359375 469.445312 226.960938 480.632812 237.445312 480.871094 C 248.050781 481.578125 257.828125 470.859375 255.707031 460.378906 C 254.53125 450.015625 243.21875 442.714844 233.324219 446.011719 Z M 233.324219 446.011719 " fill-opacity="1" fill-rule="nonzero"/><path fill="#000000" d="M 521.847656 420.105469 C 535.28125 416.101562 550.359375 418.222656 562.378906 425.523438 C 573.335938 432 581.699219 442.597656 585.351562 454.84375 C 588.414062 466.03125 587.589844 478.398438 582.40625 488.878906 C 576.988281 500.417969 566.855469 509.484375 555.191406 514.195312 C 541.289062 519.847656 524.914062 518.671875 511.835938 511.371094 C 500.996094 505.128906 491.925781 495.117188 488.273438 482.988281 C 483.914062 469.683594 485.210938 454.492188 492.632812 442.480469 C 498.992188 431.527344 509.714844 423.402344 521.847656 420.105469 M 512.542969 446.011719 C 507.121094 447.78125 503 452.609375 501.351562 458.023438 C 498.640625 468.269531 506.886719 480.046875 517.726562 480.28125 C 527.621094 480.871094 537.046875 471.800781 536.222656 461.792969 C 536.222656 450.371094 523.144531 441.539062 512.542969 446.011719 Z M 512.542969 446.011719 " fill-opacity="1" fill-rule="nonzero"/></svg>