<svg xmlns="http://www.w3.org/2000/svg" xmlns:xlink="http://www.w3.org/1999/xlink" width="1080" zoomAndPan="magnify" viewBox="0 0 810 809.999993" height="1080" preserveAspectRatio="xMidYMid meet" version="1.0"><defs><clipPath id="b1c5698e29"><path d="M 388 11.339844 L 572 11.339844 L 572 255 L 388 255 Z M 388 11.339844 " clip-rule="nonzero"/></clipPath></defs><path fill="#000000" d="M 642.078125 749.175781 C 619.460938 749.195312 598.566406 744.078125 577.960938 737.339844 C 559.578125 731.332031 541.675781 723.984375 523.398438 717.675781 C 507.46875 712.179688 491.789062 705.96875 475.832031 700.597656 C 456.972656 694.257812 438.15625 695.0625 419.6875 702.996094 C 403.359375 710.015625 388.726562 719.761719 374.570312 730.304688 C 358.4375 742.3125 342.4375 754.5 325.148438 764.839844 C 308.234375 774.953125 290.582031 783.5 271.722656 789.382812 C 250.808594 795.90625 229.441406 798.84375 207.574219 796.558594 C 189.511719 794.671875 172.664062 789.109375 157.929688 778.164062 C 140.125 764.933594 128.601562 747.335938 122.8125 726.042969 C 113.433594 691.539062 116.824219 658.160156 132.640625 626.152344 C 140.875 609.488281 153.085938 595.890625 166.910156 583.609375 C 179.277344 572.617188 192.65625 562.859375 205.082031 551.941406 C 217.132812 541.347656 226.742188 528.949219 234.253906 514.792969 C 242.511719 499.222656 248.460938 482.730469 254.128906 466.113281 C 261.820312 443.554688 269.21875 420.890625 278.488281 398.902344 C 287.253906 378.121094 298.859375 359.234375 314.328125 342.648438 C 337.3125 318.019531 364.300781 299.515625 395.804688 287.640625 C 409.792969 282.363281 424.308594 279.382812 439.261719 279.128906 C 462.109375 278.738281 482.621094 285.992188 501.15625 299.070312 C 519.238281 311.839844 534.140625 327.753906 546.886719 345.769531 C 555.273438 357.632812 562.515625 370.238281 570.570312 382.3125 C 579.339844 395.464844 590.03125 406.863281 601.835938 417.285156 C 616.191406 429.957031 632.152344 440.496094 647.613281 451.699219 C 665.089844 464.375 682.429688 477.199219 698.089844 492.160156 C 712.742188 506.15625 725.902344 521.414062 737.339844 538.121094 C 750.105469 556.761719 761.324219 576.238281 768.203125 597.929688 C 774.382812 617.421875 776.671875 637.277344 772.476562 657.441406 C 768.039062 678.792969 756.953125 696.457031 741.265625 711.441406 C 729.96875 722.242188 717.195312 730.773438 702.960938 737.121094 C 688.65625 743.496094 673.722656 747.449219 658.078125 748.746094 C 652.496094 749.214844 646.914062 749.035156 642.078125 749.175781 Z M 556.601562 475.105469 C 556.628906 470.964844 556.058594 466.917969 555.273438 462.859375 C 552.675781 449.382812 545.683594 438.953125 533.960938 431.796875 C 526.628906 427.324219 518.585938 425.09375 510.074219 423.914062 C 503.585938 423.019531 497.359375 423.664062 491.1875 425.246094 C 479.996094 428.109375 470.960938 434.601562 463.339844 443.046875 C 453.484375 453.960938 446.511719 466.621094 441.421875 480.363281 C 441.054688 481.359375 440.960938 482.722656 439.660156 482.867188 C 438.132812 483.042969 437.910156 481.511719 437.445312 480.542969 C 435.285156 476.042969 432.679688 471.816406 429.671875 467.855469 C 417.316406 451.582031 402.003906 439.957031 381.148438 437.027344 C 366.320312 434.949219 353.261719 439.042969 342.042969 448.65625 C 329.164062 459.695312 322.609375 474.441406 319.308594 490.664062 C 317.386719 500.085938 316.753906 509.648438 318.410156 519.339844 C 319.800781 527.472656 322.25 535.121094 326.140625 542.351562 C 331.875 553.011719 340.203125 561.4375 349.378906 569.066406 C 363.21875 580.570312 378.609375 589.78125 394.054688 598.914062 C 410.542969 608.65625 428.023438 616.738281 443.273438 628.546875 C 446.851562 631.3125 449.640625 631.011719 453.058594 627.996094 C 453.988281 627.175781 454.839844 626.265625 455.695312 625.363281 C 461.996094 618.71875 468.132812 611.890625 474.816406 605.632812 C 492.679688 588.898438 509.882812 571.574219 524.636719 551.9375 C 535.222656 537.839844 544.644531 523.128906 550.746094 506.488281 C 554.441406 496.359375 556.527344 485.914062 556.601562 475.105469 Z M 556.601562 475.105469 " fill-opacity="1" fill-rule="nonzero"/><path fill="#000000" d="M 340.214844 188.417969 C 340.25 215.757812 334.640625 245.136719 321.582031 273.015625 C 314.914062 287.238281 306.5 300.183594 295.195312 311.074219 C 286.304688 319.640625 276.414062 326.878906 264.519531 330.871094 C 242.300781 338.339844 222.210938 334.042969 204.285156 319.394531 C 192.457031 309.730469 184.234375 297.25 178.007812 283.414062 C 166.503906 257.851562 163.007812 230.929688 164.382812 203.148438 C 165.152344 187.488281 167.511719 172.082031 172.027344 157.089844 C 178.292969 136.28125 186.792969 116.519531 200.902344 99.625 C 210.671875 87.921875 221.859375 77.96875 236.21875 72.191406 C 245.949219 68.277344 255.871094 67.054688 266.519531 68.066406 C 277.597656 69.109375 287.089844 73.0625 295.902344 79.238281 C 305.921875 86.253906 313.558594 95.5 319.753906 105.972656 C 330.53125 124.1875 336.355469 144.003906 338.742188 164.929688 C 339.503906 171.644531 339.957031 178.375 340.214844 188.417969 Z M 340.214844 188.417969 " fill-opacity="1" fill-rule="nonzero"/><g clip-path="url(#b1c5698e29)"><path fill="#000000" d="M 571.554688 167.636719 C 571.527344 182.128906 569.546875 196.296875 564.230469 209.847656 C 560.085938 220.421875 554.476562 230.097656 546.292969 238.171875 C 535.742188 248.59375 522.902344 253.808594 508.300781 254.714844 C 493.445312 255.636719 479.683594 251.589844 466.839844 244.359375 C 443.808594 231.386719 426.9375 212.367188 413.660156 189.824219 C 399.320312 165.46875 390.832031 139.273438 388.550781 111.089844 C 387.46875 97.703125 387.972656 84.386719 390.929688 71.253906 C 394.453125 55.617188 400.828125 41.34375 412.046875 29.621094 C 417.742188 23.667969 424.394531 19.128906 432.363281 16.46875 C 437.957031 14.601562 443.355469 12.289062 449.375 11.984375 C 462.101562 11.339844 474.324219 13.40625 485.847656 18.820312 C 506.96875 28.742188 523.417969 44.179688 536.917969 62.941406 C 554.722656 87.683594 565.488281 115.277344 569.980469 145.359375 C 571.089844 152.742188 571.496094 160.1875 571.554688 167.636719 Z M 571.554688 167.636719 " fill-opacity="1" fill-rule="nonzero"/></g><path fill="#000000" d="M 775.886719 366.875 C 775.945312 380.945312 773.5 395.664062 766.117188 409.121094 C 755.488281 428.480469 739.140625 439.128906 716.855469 439.832031 C 700.136719 440.355469 685.101562 434.722656 671.09375 426.140625 C 653.347656 415.269531 639.066406 400.703125 627.15625 383.75 C 615.484375 367.148438 606.886719 349.046875 601.304688 329.554688 C 597.355469 315.753906 595.15625 301.65625 595.59375 287.25 C 596.046875 272.402344 598.8125 258.121094 606.167969 244.976562 C 619.160156 221.757812 641.9375 213.019531 665.734375 216.363281 C 682.492188 218.714844 697.089844 226.089844 710.34375 236.238281 C 729.363281 250.8125 744.117188 269.015625 755.464844 290.082031 C 764.410156 306.695312 770.902344 324.140625 773.992188 342.78125 C 775.242188 350.371094 776.007812 358.023438 775.886719 366.875 Z M 775.886719 366.875 " fill-opacity="1" fill-rule="nonzero"/><path fill="#000000" d="M 187.265625 400.777344 C 186.945312 420.613281 183.847656 444.382812 176.460938 467.515625 C 172.085938 481.199219 166.332031 494.257812 158.410156 506.234375 C 149.285156 520.023438 138.46875 532.230469 123.742188 540.398438 C 116.265625 544.546875 108.265625 546.28125 99.730469 545.464844 C 96.347656 545.136719 93.425781 543.734375 90.394531 542.195312 C 76.667969 535.222656 69.28125 522.617188 61.695312 510.273438 C 47.273438 486.78125 39.4375 460.964844 36.167969 433.757812 C 33.503906 411.582031 34.527344 389.550781 40.933594 368 C 46.449219 349.425781 54.957031 332.445312 68.675781 318.511719 C 83.324219 303.632812 100.828125 294.738281 122.121094 294.945312 C 136.050781 295.078125 148.113281 300.367188 158.488281 309.558594 C 170.125 319.871094 176.398438 333.308594 180.800781 347.882812 C 185.570312 363.714844 187.140625 379.960938 187.265625 400.777344 Z M 187.265625 400.777344 " fill-opacity="1" fill-rule="nonzero"/></svg>